# xmcd
#
# Track frame offsets:
#	150
#	16515
#	34280
#	51442
#	68207
#	82475
#	96932
#	110920
#	124507
#	141982
#	159034
#	176959
#
# Disc length: 2580 seconds
#
# Revision: 6
# Processed by: cddbd v1.5.2PL0 Copyright (c) Steve Scherf et al.
# Submitted via: EasyCDDAExtractor 15.3.0.1
#
DISCID=aa0a120c
DTITLE=Ana Barbara - No Es Brujeria
DYEAR=2006
DGENRE=Latin
TTITLE0=Mi Amor Te Pide Mas
TTITLE1=La Tristeza Me Llego
TTITLE2=No Es Brujeria
TTITLE3=No Pidas Perdon
TTITLE4=Si Tu Supieras
TTITLE5=Vete
TTITLE6=No Te Dejare
TTITLE7=Solo Mio
TTITLE8=Dos Abrazos
TTITLE9=Llorar Quedito
TTITLE10=No Es Brujeria (Version Cumbia Norteña) (Bonus Track)
TTITLE11=No Es Brujeria (Version Acustica) (Bonus Track)
EXTD=
EXTT0=
EXTT1=
EXTT2=
EXTT3=
EXTT4=
EXTT5=
EXTT6=
EXTT7=
EXTT8=
EXTT9=
EXTT10=
EXTT11=
PLAYORDER=
